<?xml version="1.0" standalone="no"?>
<!DOCTYPE svg PUBLIC "-//W3C//DTD SVG 20010904//EN"
 "http://www.w3.org/TR/2001/REC-SVG-20010904/DTD/svg10.dtd">
<svg version="1.0" xmlns="http://www.w3.org/2000/svg"
 width="176.000000pt" height="145.000000pt" viewBox="0 0 176.000000 145.000000"
 preserveAspectRatio="xMidYMid meet">
<metadata>
Created by potrace 1.10, written by Peter Selinger 2001-2011
</metadata>
<g transform="translate(0.000000,145.000000) scale(0.100000,-0.100000)"
fill="#000000" stroke="none">
<path d="M872 1308 c2 -51 6 -63 21 -66 15 -3 17 3 13 45 -2 26 -4 56 -5 66
-1 9 -8 17 -16 17 -13 0 -15 -11 -13 -62z"/>
<path d="M1019 1298 c-8 -7 -28 -30 -43 -51 -24 -33 -25 -38 -10 -44 13 -5 27
4 51 32 43 50 45 99 2 63z"/>
<path d="M750 1282 c0 -4 13 -23 28 -42 21 -24 33 -32 47 -27 17 7 17 8 0 27
-10 11 -23 17 -29 13 -6 -3 -8 -3 -4 2 4 4 3 14 -3 22 -12 14 -39 18 -39 5z"/>
<path d="M736 1161 c-44 -5 -47 -8 -33 -20 13 -10 17 -10 17 -1 0 8 14 11 45
8 25 -2 44 1 42 6 -4 13 -13 14 -71 7z"/>
<path d="M998 1163 c-10 -2 -18 -8 -18 -13 0 -16 22 -23 72 -25 45 -2 49 0 46
19 -2 17 -11 21 -43 23 -22 0 -48 -1 -57 -4z"/>
<path d="M344 1135 c-26 -18 -34 -52 -40 -185 -6 -123 16 -281 44 -320 16 -22
16 -29 4 -65 -27 -80 -33 -135 -19 -179 21 -64 36 -92 68 -124 46 -47 200
-120 269 -128 30 -3 71 -10 90 -15 35 -8 197 -6 235 4 11 3 32 8 48 12 15 3
27 12 27 20 0 18 -17 28 -31 19 -40 -24 -281 -21 -381 5 -75 19 -194 75 -229
107 -30 27 -58 99 -58 150 -1 82 0 86 46 182 25 51 42 96 38 100 -7 7 -39 -27
-61 -64 -18 -29 -25 -14 -40 88 -22 140 -19 336 7 362 13 14 135 -13 201 -44
71 -35 112 -63 165 -117 40 -40 43 -41 78 -30 35 10 78 5 138 -18 11 -5 17 -2
17 8 0 23 34 27 185 23 105 -3 160 -9 219 -26 72 -20 146 -56 160 -78 9 -15
-112 -190 -175 -252 l-62 -61 -30 58 c-16 32 -34 61 -41 65 -20 13 -28 -9 -13
-38 8 -16 22 -52 31 -80 23 -72 5 -157 -53 -242 -23 -34 -46 -62 -51 -62 -16
0 -11 -20 6 -27 17 -6 84 52 84 73 0 7 6 19 14 27 19 18 47 87 41 97 -3 5 -1
11 3 14 5 3 9 22 10 43 1 21 7 40 14 42 31 10 135 123 187 201 69 105 84 142
65 169 -15 21 -86 61 -109 61 -8 0 -15 4 -15 9 0 16 -139 41 -254 46 -67 4
-189 -7 -232 -20 -20 -6 -21 -3 -18 49 3 46 0 58 -15 66 -14 7 -20 6 -24 -3
-8 -21 1 -91 12 -95 6 -2 11 -8 11 -13 0 -5 -11 -4 -26 1 -32 12 -81 13 -88 1
-3 -5 -32 16 -63 46 -114 108 -326 183 -389 138z"/>
<path d="M783 1060 c-13 -15 -26 -35 -29 -44 -10 -25 29 -20 52 7 33 38 38 49
23 58 -19 12 -21 11 -46 -21z"/>
<path d="M973 1073 c-21 -7 -15 -20 22 -48 35 -27 75 -28 75 -1 0 15 -80 55
-97 49z"/>
<path d="M603 872 c-52 -22 -87 -52 -74 -65 7 -7 23 -2 48 14 21 14 53 31 71
38 17 8 32 17 32 22 0 13 -30 10 -77 -9z"/>
<path d="M695 809 c-121 -62 -208 -155 -235 -250 -25 -85 -8 -177 40 -216 30
-25 117 -64 156 -69 87 -13 262 -15 319 -4 33 7 71 14 84 17 108 19 167 184
111 311 -19 42 -130 162 -150 162 -21 0 -9 -26 23 -51 45 -37 104 -126 115
-175 12 -55 -10 -140 -46 -176 -36 -37 -135 -57 -288 -59 -300 -5 -406 91
-319 287 33 74 64 110 142 161 99 65 168 78 254 48 41 -15 69 -9 55 13 -9 15
-89 32 -148 32 -40 0 -68 -8 -113 -31z"/>
<path d="M1164 695 c-9 -23 10 -40 25 -22 9 11 8 17 -4 27 -12 10 -16 9 -21
-5z"/>
<path d="M692 665 c-76 -33 -71 -153 8 -170 23 -5 30 -12 30 -29 0 -24 43 -52
62 -40 6 4 27 7 46 6 26 -1 41 5 62 28 16 17 37 30 48 30 10 0 31 9 46 21 38
30 37 90 -3 130 -37 37 -72 37 -111 2 -47 -43 -48 -105 -2 -139 20 -14 8 -44
-16 -44 -11 0 -25 7 -32 15 -10 13 -14 12 -30 -7 -15 -19 -20 -20 -34 -9 -19
16 -21 41 -3 41 8 0 24 11 36 24 19 20 22 32 17 67 -3 24 -12 49 -19 56 -23
24 -71 32 -105 18z m68 -50 c13 -15 5 -55 -11 -55 -19 0 -49 20 -60 41 -7 13
-7 19 -1 15 6 -3 13 -2 17 4 9 15 41 12 55 -5z m199 -16 c-10 -20 -44 -26 -54
-9 -11 18 14 38 40 32 21 -3 23 -7 14 -23z m-53 -55 c33 -8 74 3 74 21 0 8 5
15 10 15 14 0 12 -12 -6 -38 -27 -40 -115 -24 -113 21 1 17 2 18 6 5 2 -10 15
-21 29 -24z m-166 -1 c49 6 54 -10 6 -18 -35 -7 -76 7 -76 27 0 7 5 6 15 -2 9
-8 30 -11 55 -7z"/>
<path d="M690 463 c0 -3 8 -18 17 -34 26 -44 136 -64 193 -34 16 8 34 24 40
34 18 35 11 36 -17 3 -29 -32 -44 -36 -121 -34 -36 2 -51 9 -78 36 -19 19 -34
32 -34 29z"/>
<path d="M1085 180 c-10 -16 16 -43 28 -31 11 11 2 41 -12 41 -5 0 -13 -5 -16
-10z"/>
<path d="M1380 131 c0 -8 -7 -11 -17 -7 -12 4 -10 0 5 -10 12 -9 22 -22 22
-28 0 -8 -2 -8 -8 0 -4 7 -18 14 -32 15 -31 5 -41 -26 -11 -36 43 -13 85 35
56 64 -11 12 -15 12 -15 2z"/>
</g>
</svg>
